<?xml version="1.0" standalone="no"?>
<!DOCTYPE svg PUBLIC "-//W3C//DTD SVG 20010904//EN"
 "http://www.w3.org/TR/2001/REC-SVG-20010904/DTD/svg10.dtd">
<svg version="1.0" xmlns="http://www.w3.org/2000/svg"
 width="250.000000pt" height="250.000000pt" viewBox="0 0 250.000000 250.000000"
 preserveAspectRatio="xMidYMid meet">
<metadata>
Created by potrace 1.14, written by Peter Selinger 2001-2017
</metadata>
<g transform="translate(0.000000,250.000000) scale(0.100000,-0.100000)"
fill="#000000" stroke="none">
<path d="M1070 2246 c0 -3 15 -26 34 -50 50 -66 71 -135 71 -237 0 -81 -2 -90
-31 -130 -17 -24 -41 -74 -53 -111 -23 -70 -41 -95 -41 -59 0 37 -17 22 -29
-23 -16 -66 -14 -135 10 -241 19 -90 69 -218 90 -231 6 -3 7 21 2 63 -16 151
-7 333 15 333 10 0 72 -121 72 -140 0 -9 3 -10 9 -5 5 6 11 62 14 125 3 82 10
131 25 170 11 30 24 71 29 90 l10 35 27 -85 c17 -52 30 -119 33 -173 8 -124
23 -127 65 -12 l23 60 8 -55 c12 -75 2 -230 -21 -317 -10 -40 -16 -73 -12 -73
13 0 67 88 95 155 29 69 29 73 29 260 0 180 -1 194 -26 262 -15 40 -44 99 -65
130 -36 55 -112 137 -119 130 -2 -2 3 -35 11 -73 21 -99 19 -99 -30 0 -46 94
-98 156 -149 180 -36 16 -96 30 -96 22z"/>
<path d="M594 1749 c-131 -103 -204 -201 -270 -363 -43 -105 -50 -89 109 -250
110 -111 226 -206 253 -206 7 0 26 16 41 36 15 20 35 45 44 57 16 20 18 19
125 -89 192 -194 345 -294 672 -441 19 -8 71 -24 117 -35 73 -18 87 -19 101
-7 56 46 60 199 6 228 -11 6 -110 28 -221 51 -111 22 -214 46 -229 54 -15 7
-40 16 -57 20 -45 11 -219 101 -278 145 -29 21 -78 62 -110 91 -84 76 -70 45
17 -37 114 -109 187 -155 355 -225 64 -26 84 -38 60 -35 -88 12 -312 123 -392
195 -42 37 -127 123 -127 128 0 2 21 36 46 76 54 84 54 94 1 228 -55 138 -198
410 -217 410 -4 0 -25 -14 -46 -31z m54 -151 c5 -7 44 -78 86 -157 79 -150 92
-196 51 -196 -13 0 -33 24 -67 80 -126 210 -136 236 -108 270 15 18 24 19 38
3z m-73 -130 c31 -45 127 -194 152 -235 20 -34 22 -46 13 -63 -6 -12 -17 -20
-25 -18 -22 5 -205 258 -205 283 0 57 35 74 65 33z m5 -225 c55 -69 100 -133
100 -143 0 -10 -7 -23 -16 -30 -17 -15 -9 -23 -153 134 -70 76 -91 105 -91
127 0 29 24 51 47 42 7 -3 58 -61 113 -130z"/>
<path d="M1837 1718 c-72 -130 -167 -331 -193 -412 l-28 -85 34 -53 c18 -29
40 -66 49 -81 l16 -28 -70 -66 c-38 -37 -101 -86 -139 -111 -64 -41 -68 -46
-49 -55 12 -5 32 -7 45 -4 22 6 154 131 198 190 12 15 25 27 30 27 5 0 28 -25
51 -55 23 -30 47 -55 53 -55 37 0 257 192 357 312 l42 50 -23 66 c-31 88 -99
211 -152 274 -39 46 -161 148 -179 148 -4 0 -23 -28 -42 -62z m77 -124 c23
-22 19 -52 -12 -106 -149 -256 -159 -268 -186 -225 -9 14 0 38 47 130 53 104
70 136 104 195 16 26 26 28 47 6z m94 -147 c3 -32 -4 -47 -50 -107 -29 -38
-73 -96 -97 -130 -47 -65 -74 -75 -79 -28 -3 25 36 92 156 271 34 51 66 48 70
-6z m92 -117 c0 -22 -21 -52 -94 -132 -128 -142 -130 -143 -150 -123 -25 25
-20 39 37 107 29 35 64 79 78 98 15 19 40 50 57 68 26 28 34 32 52 22 13 -7
20 -21 20 -40z"/>
<path d="M1172 1127 c-20 -20 -32 -42 -31 -57 1 -21 2 -22 6 -5 3 11 21 37 41
58 20 20 32 37 26 37 -6 0 -24 -15 -42 -33z"/>
<path d="M1261 1103 c-19 -26 -39 -52 -46 -58 -7 -5 -15 -28 -18 -50 -4 -22
-4 -34 -1 -27 3 6 12 12 20 12 14 0 18 12 15 38 -1 7 14 36 34 63 20 28 35 55
33 61 -2 5 -19 -12 -37 -39z"/>
<path d="M1352 1095 c-6 -13 -30 -38 -53 -55 -24 -17 -35 -30 -26 -30 22 0 97
73 97 93 0 23 -5 21 -18 -8z"/>
<path d="M1620 1033 c-48 -48 -124 -104 -195 -144 -47 -26 -55 -35 -39 -37 35
-5 178 97 253 180 42 47 28 47 -19 1z"/>
<path d="M1239 952 c6 -12 16 -24 22 -28 8 -4 8 -1 0 14 -6 12 -16 24 -22 28
-8 4 -8 1 0 -14z"/>
<path d="M871 715 c-63 -13 -125 -28 -137 -34 -50 -23 -57 -164 -10 -218 l23
-27 84 21 c117 29 349 130 349 151 0 7 -104 83 -123 91 -5 2 -18 12 -28 22
-22 22 -14 23 -158 -6z"/>
</g>
</svg>
